<?xml version="1.0" encoding="UTF-8"?>
<svg version="1.1" xmlns="http://www.w3.org/2000/svg" width="508" height="310">
<path d="M0 0 C2.23884246 -0.00435468 4.47768343 -0.00954033 6.71652222 -0.01548767 C12.76218047 -0.02880846 18.80777595 -0.02946401 24.85344601 -0.02692437 C29.91755585 -0.02584981 34.98165324 -0.03075044 40.04576039 -0.03552979 C52.68487358 -0.04723286 65.32394864 -0.04641366 77.96306124 -0.03997298 C88.89787592 -0.03480826 99.8326014 -0.04605318 110.76739845 -0.0650712 C122.03867896 -0.08452169 133.30991861 -0.09240265 144.58121991 -0.08894795 C150.89175106 -0.08714327 157.20220053 -0.08968926 163.5127182 -0.10366249 C169.45215366 -0.11632342 175.39141185 -0.11421919 181.33084488 -0.1012516 C183.4970239 -0.09890406 185.66321572 -0.10155416 187.82938004 -0.10987473 C230.71542265 -0.26258767 270.26626206 14.55450155 301.14941406 44.7746582 C314.95801527 58.67145653 325.47769953 74.46977439 333.58300781 92.2746582 C334.40091797 94.05936523 334.40091797 94.05936523 335.23535156 95.88012695 C350.68334333 131.92544108 350.52294982 174.23831786 336.65576172 210.71362305 C328.44251736 231.13179031 316.73208736 248.37145171 301.58300781 264.2746582 C300.87789063 265.04422852 300.17277344 265.81379883 299.44628906 266.60668945 C280.63397984 286.49398778 254.36596198 299.6574647 228.02050781 306.1496582 C227.25569092 306.34084229 226.49087402 306.53202637 225.70288086 306.72900391 C209.7644213 310.34027886 193.41531659 310.56984249 177.15893555 310.53344727 C175.08684161 310.53616544 173.01474865 310.53973096 170.94265747 310.54406738 C165.37454516 310.55309489 159.80650793 310.54968755 154.2383945 310.54330921 C148.37589253 310.53819947 142.51339643 310.54295429 136.65089417 310.54608154 C126.81225445 310.54970653 116.97364489 310.54496049 107.13500977 310.53540039 C95.80317215 310.52451567 84.47140653 310.52804753 73.13957065 310.5390532 C63.36233549 310.54816445 53.58512184 310.54939276 43.8078838 310.54417586 C37.98929069 310.54107757 32.17073129 310.54058739 26.35214043 310.54724884 C20.87968621 310.55307794 15.40732374 310.54892492 9.9348793 310.53746033 C7.94124185 310.53484336 5.94759651 310.53552725 3.95396233 310.53998566 C-11.88520416 310.57210851 -27.60779928 309.91710175 -43.04199219 306.0246582 C-43.91968262 305.80704834 -44.79737305 305.58943848 -45.70166016 305.36523438 C-66.46029446 300.04245921 -85.57401673 290.53724067 -102.41699219 277.2746582 C-102.96548828 276.84572266 -103.51398438 276.41678711 -104.07910156 275.97485352 C-135.88370469 250.82572713 -154.34139672 215.26679341 -161.03417969 175.6184082 C-165.65203425 134.05252855 -155.27422292 93.18916268 -129.65917969 60.0402832 C-126.07590815 55.6204988 -122.32813253 51.40596208 -118.41699219 47.2746582 C-117.59714844 46.39036133 -116.77730469 45.50606445 -115.93261719 44.5949707 C-85.21473691 12.51387089 -43.33264178 -0.05599703 0 0 Z " fill="#EC2129" transform="translate(161.4169921875,-0.274658203125)"/>
<path d="M0 0 C1.69357132 -0.01270432 1.69357132 -0.01270432 3.4213562 -0.02566528 C7.15430972 -0.0490668 10.88685172 -0.05005653 14.61987305 -0.04882812 C17.21673243 -0.05592854 19.81359025 -0.06362736 22.41044617 -0.07189941 C27.85522454 -0.08535209 33.29984219 -0.08709102 38.74462891 -0.08105469 C45.02446151 -0.07442018 51.30370582 -0.09725674 57.58341914 -0.13436842 C63.6388361 -0.16884705 69.69394222 -0.1753956 75.74947166 -0.17127991 C78.31905048 -0.17297168 80.88863699 -0.18261959 83.45815468 -0.20042419 C87.05590793 -0.22260708 90.65225076 -0.21291267 94.25 -0.1953125 C95.30741898 -0.20857574 96.36483795 -0.22183899 97.45429993 -0.23550415 C104.17146739 -0.15931583 108.62658949 1.05767191 113.8190918 5.41992188 C117.85650527 9.76790561 118.93391021 12.92318359 119.01196289 18.77416992 C119.02802582 19.86928391 119.04408875 20.96439789 119.06063843 22.09269714 C119.10518579 27.1059808 119.14616207 32.11913291 119.16918945 37.13256836 C119.18573549 39.7736086 119.21300718 42.41460432 119.2512207 45.05541992 C119.3060998 48.86856257 119.32788298 52.68065575 119.3425293 56.49414062 C119.36519867 57.66837082 119.38786804 58.84260101 119.41122437 60.05241394 C119.39001135 68.32073131 118.03900695 73.05906203 112.29823303 78.99157715 C105.75414459 84.20763447 96.94016781 83.10949087 89.02612305 83.05664062 C87.39042302 83.06469024 85.75473349 83.07521381 84.11906433 83.08808899 C79.83178183 83.11653127 75.54498394 83.11723056 71.25762939 83.11022949 C64.38613876 83.10288287 57.51480247 83.13429754 50.64343834 83.17267799 C48.2497937 83.18150721 45.85648859 83.1762373 43.46284485 83.16911316 C41.99280709 83.17249815 40.52277011 83.17624757 39.05273438 83.18041992 C37.77336502 83.17866257 36.49399567 83.17690521 35.17585754 83.1750946 C31.90792164 83.41344303 29.75909434 84.04220521 26.8190918 85.41992188 C25.8290918 85.74992187 24.8390918 86.07992187 23.8190918 86.41992188 C19.92185805 92.91531146 20.08968194 100.06780205 20.8190918 107.41992188 C22.43259388 111.64145534 24.59882723 113.69480938 28.44468689 115.9801178 C32.25192563 117.60460508 35.42943355 117.83419887 39.48925781 117.78881836 C40.23312744 117.79258484 40.97699707 117.79635132 41.7434082 117.80023193 C43.34916998 117.80663929 44.95496973 117.80635806 46.56073189 117.80004692 C49.10421596 117.7909034 51.64696812 117.80119616 54.19041443 117.81666565 C61.4181105 117.8566828 68.64574668 117.85796504 75.87353516 117.85571289 C80.30263289 117.85566178 84.73133335 117.87483049 89.16032219 117.90504646 C91.66269023 117.91586301 94.16429773 117.9037491 96.66664124 117.89122009 C98.20387523 117.90012477 99.74110304 117.91019925 101.27832031 117.92163086 C102.31722664 117.90701561 102.31722664 117.90701561 103.37712097 117.8921051 C108.1179037 117.96237997 110.46760968 119.10764121 113.8190918 122.41992188 C116.10763174 125.68926465 116.29071397 128.48973707 115.8190918 132.41992188 C113.77915271 136.07774368 112.31489918 138.08938362 108.8190918 140.41992188 C106.52736092 140.67719078 106.52736092 140.67719078 103.78445435 140.68734741 C102.2240744 140.70014236 102.2240744 140.70014236 100.63217163 140.7131958 C99.49132111 140.71228943 98.35047058 140.71138306 97.17504883 140.71044922 C95.97319946 140.71716644 94.7713501 140.72388367 93.53308105 140.73080444 C90.23543033 140.7465642 86.93803143 140.75316046 83.64036036 140.75443602 C80.88692627 140.75633532 78.13351634 140.76369327 75.38009155 140.77078021 C68.88302058 140.78706781 62.38600505 140.79194885 55.88891602 140.79052734 C49.18881919 140.78932602 42.48904454 140.81042477 35.78902924 140.84201467 C30.03520732 140.86817574 24.28149064 140.87889471 18.52760971 140.87761652 C15.0917382 140.8771068 11.65615295 140.88279512 8.22034073 140.90397263 C4.38740734 140.92695256 0.5549149 140.91783509 -3.27807617 140.90576172 C-4.41487823 140.91700073 -5.5516803 140.92823975 -6.72293091 140.93981934 C-14.36496369 140.87852354 -14.36496369 140.87852354 -18.23733521 138.70205688 C-22.10635552 134.15906997 -23.55507502 131.19343595 -23.58496094 125.16430664 C-23.59764511 123.92274307 -23.61032928 122.6811795 -23.62339783 121.4019928 C-23.62134616 120.05510287 -23.61835795 118.70821409 -23.61450195 117.36132812 C-23.61906678 115.97036993 -23.62437325 114.57941399 -23.63038635 113.1884613 C-23.63930597 110.27748434 -23.63690787 107.36678189 -23.62695312 104.45581055 C-23.61546716 100.73557864 -23.63567356 97.01629648 -23.66487026 93.29618931 C-23.68326623 90.42471859 -23.68293312 87.55347404 -23.67723274 84.68195915 C-23.67707993 83.3108989 -23.68309142 81.93982293 -23.69552422 80.56881905 C-23.79961728 67.20835797 -23.79961728 67.20835797 -19.1809082 62.41992188 C-18.41069588 61.61815269 -18.41069588 61.61815269 -17.62492371 60.80018616 C-13.82769394 58.65569051 -10.14678868 59.00550727 -5.85766602 59.03515625 C-4.91408234 59.02978348 -3.97049866 59.02441071 -2.99832153 59.01887512 C-0.95000506 59.00909451 1.09835286 59.00615382 3.14669037 59.00923157 C6.39228572 59.01370818 9.63733538 58.99971196 12.88287354 58.98083496 C19.77827065 58.94402952 26.67361092 58.93034597 33.5690918 58.91992188 C41.54685291 58.90783478 49.52434899 58.88621337 57.50199127 58.83992004 C60.69265729 58.82637693 63.88298607 58.83051671 67.07366943 58.83532715 C69.04187443 58.82598179 71.01007574 58.81581179 72.97827148 58.8046875 C73.85959747 58.81083572 74.74092346 58.81698395 75.6489563 58.82331848 C81.90683854 58.76145889 88.06448224 58.06042507 92.78759766 53.53295898 C94.74150659 49.53033606 94.3726452 45.35730639 94.3815918 40.98242188 C94.41833008 40.04076172 94.45506836 39.09910156 94.49291992 38.12890625 C94.61688218 33.08738817 94.61688218 33.08738817 92.51391602 28.68115234 C87.32467343 24.2875831 83.18905267 24.27877063 76.67529297 24.29394531 C75.72718246 24.29207718 74.77907196 24.29020905 73.80223083 24.2882843 C71.73857585 24.28427415 69.6749164 24.2822049 67.61125755 24.2818222 C63.22752057 24.27841509 58.84393304 24.25706339 54.46024799 24.23659134 C46.29232662 24.19852041 38.12456311 24.16730817 29.95654297 24.16943359 C24.28061248 24.17021979 18.60522612 24.14689437 12.92943764 24.10755157 C10.76492063 24.09707458 8.60034094 24.09557997 6.435812 24.10320282 C3.40696551 24.11280479 0.37977142 24.09167869 -2.64892578 24.06347656 C-3.99180664 24.07877159 -3.99180664 24.07877159 -5.36181641 24.09437561 C-9.76547493 24.0208069 -11.5965498 23.8827119 -15.1516571 21.06719971 C-18.67641179 16.46894918 -19.68469149 14.26380803 -19.1809082 8.41992188 C-15.39984018 -0.33623565 -8.40617744 -0.02316442 0 0 Z " fill="#FEFEFD" transform="translate(167.180908203125,62.580078125)"/>
<path d="M0 0 C4.22917505 1.82623468 5.94054202 3.94184553 8 8 C8.37181091 10.5974884 8.37181091 10.5974884 8.36889648 13.39770508 C8.37577988 14.4526265 8.38266327 15.50754791 8.38975525 16.59443665 C8.38359695 17.72471786 8.37743866 18.85499908 8.37109375 20.01953125 C8.38847848 22.42773578 8.40606284 24.83593887 8.42382812 27.24414062 C8.43389205 31.02940546 8.43749906 34.81457586 8.43579102 38.59985352 C8.43937018 42.2608637 8.46675075 45.92115027 8.49609375 49.58203125 C8.48791122 50.70623978 8.4797287 51.8304483 8.47129822 52.98872375 C8.53172241 59.39735654 8.83288126 64.87675129 13 70 C18.6171075 75.31512631 24.37348417 75.72022844 31.81640625 75.59375 C32.83169907 75.59379028 33.84699188 75.59383057 34.89305115 75.59387207 C37.02861763 75.58853564 39.16418487 75.57103394 41.29956055 75.54199219 C44.55644111 75.50007797 47.81125396 75.50093527 51.06835938 75.5078125 C53.15105594 75.49732048 55.23374192 75.48438231 57.31640625 75.46875 C58.28324844 75.46854858 59.25009064 75.46834717 60.24623108 75.46813965 C65.95548421 75.36881494 69.90515982 74.58675692 75 72 C75.99 71.67 76.98 71.34 78 71 C79.18391223 68.62374655 79.18391223 68.62374655 80 66 C80.495 64.515 80.495 64.515 81 63 C81.09594457 61.2678799 81.1353869 59.53237072 81.1418457 57.79760742 C81.14888016 56.73607956 81.15591461 55.6745517 81.16316223 54.58085632 C81.16940865 52.86053947 81.16940865 52.86053947 81.17578125 51.10546875 C81.19897888 48.68163193 81.22309619 46.25780378 81.24804688 43.83398438 C81.28317026 40.00897421 81.31251128 36.18428272 81.32592773 32.35913086 C81.3414032 28.67001692 81.38161213 24.98183615 81.42578125 21.29296875 C81.42387283 20.15216354 81.42196442 19.01135834 81.41999817 17.83598328 C81.5163558 11.57815114 81.80934028 7.76411321 86 3 C86.556875 2.360625 87.11375 1.72125 87.6875 1.0625 C91.47552535 -0.67794408 95.04319877 -0.05796824 99 1 C101.81992717 2.82120296 103.50345478 4.00690956 105 7 C105.09894338 8.71410647 105.13554727 10.43197759 105.1418457 12.14892578 C105.15239738 13.76167892 105.15239738 13.76167892 105.16316223 15.40701294 C105.16732651 16.57465179 105.17149078 17.74229065 105.17578125 18.9453125 C105.19898793 21.40886263 105.2231056 23.87240432 105.24804688 26.3359375 C105.28310911 30.22661922 105.31247231 34.11699231 105.32592773 38.0078125 C105.34144294 41.75819557 105.38168867 45.50767051 105.42578125 49.2578125 C105.42387283 50.41330597 105.42196442 51.56879944 105.41999817 52.75930786 C105.53173893 60.17268459 106.37534957 66.07835585 111.54194641 71.66828918 C113.07058124 73.14285618 114.65189882 74.53880196 116.25 75.9375 C122.87248655 82.196244 122.87248655 82.196244 123.25 86.75 C122.55249509 91.42244253 119.65685311 93.91733594 116.2421875 96.94921875 C111.69691899 101.10647653 106.31204701 106.58837504 105.8581543 113.00537109 C105.84695557 113.75383301 105.83575684 114.50229492 105.82421875 115.2734375 C105.80037109 116.0984375 105.77652344 116.9234375 105.75195312 117.7734375 C105.70918405 119.49975307 105.6778251 121.2263912 105.65820312 122.953125 C105.52686704 126.87488161 105.31197449 129.43373973 103.39453125 132.9140625 C97.30242942 138.22104843 91.33248624 138.52208951 83.5625 138.5 C82.65951172 138.52835938 81.75652344 138.55671875 80.82617188 138.5859375 C74.49820419 138.60426615 69.72418599 137.40249875 65 133 C63.09719016 130.0289937 62.74350541 127.68681734 62.69140625 124.19140625 C62.66626953 123.27939453 62.64113281 122.36738281 62.61523438 121.42773438 C62.58015125 119.52155107 62.54888512 117.61529359 62.52148438 115.70898438 C62.396862 108.82505652 62.396862 108.82505652 59 103 C55.34618086 100.40829947 52.87871041 99.62848397 48.41870117 99.64697266 C47.32373825 99.64331696 46.22877533 99.63966125 45.10063171 99.63589478 C43.92660294 99.64519012 42.75257416 99.65448547 41.54296875 99.6640625 C39.0436172 99.65154894 36.54426823 99.63851177 34.04492188 99.625 C30.11473452 99.62107202 26.18480172 99.62501005 22.25463867 99.63964844 C18.45453143 99.64823571 14.6554829 99.62650428 10.85546875 99.6015625 C9.68751266 99.61490631 8.51955658 99.62825012 7.31620789 99.64199829 C0.31816513 99.57888761 -4.67739814 98.77405172 -10 94 C-14.23491201 88.57062563 -15.15267923 84.41509074 -15.20874023 77.70214844 C-15.21852402 76.96192947 -15.2283078 76.22171051 -15.23838806 75.45906067 C-15.26830306 73.00918364 -15.28971735 70.55936108 -15.30859375 68.109375 C-15.31516558 67.27135597 -15.3217374 66.43333694 -15.32850838 65.5699234 C-15.36108604 61.13338407 -15.38553993 56.69686859 -15.4050293 52.26025391 C-15.42283551 48.5935564 -15.45764592 44.92762895 -15.50756836 41.26123047 C-15.5678415 36.82915918 -15.59851442 32.39780127 -15.60820198 27.96533966 C-15.61674608 26.2796422 -15.63553866 24.59396327 -15.6649456 22.90850067 C-15.90994161 8.06653281 -15.90994161 8.06653281 -12.08618164 3.47363281 C-7.70910765 -0.03467457 -5.62200603 -0.38115295 0 0 Z " fill="#FEFDFD" transform="translate(308,89)"/>
<path d="M0 0 C1.72583652 0.12372063 3.4509778 0.25715752 5.17578125 0.39453125 C6.13653564 0.46776611 7.09729004 0.54100098 8.0871582 0.61645508 C16.28039306 1.69528937 22.83601898 5.70000795 29 11 C29.89332031 11.71736328 29.89332031 11.71736328 30.8046875 12.44921875 C37.60303124 18.44686867 42.61076919 28.06475654 44 37 C44.08893436 39.25524438 44.13137698 41.51255296 44.140625 43.76953125 C44.15996094 45.07083984 44.17929687 46.37214844 44.19921875 47.71289062 C44.22809802 49.7601375 44.24999852 51.80629632 44.25048828 53.85375977 C44.26466672 65.38401441 44.26466672 65.38401441 50 75 C53.41589158 77.95428461 56.34250825 78.45569805 60.84765625 78.3046875 C63.14199565 77.97989898 65.02799118 77.33210432 67.1875 76.5 C74.19360904 74.00813648 81.32211068 73.67852581 88.359375 76.20703125 C93.31234563 78.59291344 97.24956807 80.94070897 101 85 C95.8826903 88.60537729 92.54875004 90.09359847 86.35839844 90.19287109 C85.44354675 90.20893402 84.52869507 90.22499695 83.58612061 90.24154663 C79.40980008 90.28628895 75.23363337 90.32705745 71.05712891 90.35009766 C68.85942996 90.36664611 66.66178458 90.39392127 64.46435547 90.43212891 C61.2832468 90.48709923 58.10339566 90.50880254 54.921875 90.5234375 C53.94764587 90.54610687 52.97341675 90.56877625 51.96966553 90.59213257 C45.44427938 90.5720804 41.00246982 89.30532946 36 85 C32.3069718 80.26534846 30.88670365 76.7241393 30.82641602 70.78173828 C30.81292618 69.71698273 30.79943634 68.65222717 30.78553772 67.5552063 C30.76988014 65.83018387 30.76988014 65.83018387 30.75390625 64.0703125 C30.72097056 61.64192344 30.68775887 59.21353811 30.65429688 56.78515625 C30.60685986 52.95136052 30.56242408 49.11758023 30.52319336 45.28369141 C30.48348669 41.58740495 30.43194047 37.89142838 30.37890625 34.1953125 C30.36628502 32.47636276 30.36628502 32.47636276 30.35340881 30.72268677 C30.33676682 29.65162689 30.32012482 28.58056702 30.30297852 27.47705078 C30.28751732 26.06832199 30.28751732 26.06832199 30.27174377 24.63113403 C29.97333921 21.74185937 29.29518336 19.5951758 28 17 C24.12049249 14.6722955 20.44028931 14.45470131 16 15 C13.02883773 16.78801488 10.57446047 18.85107906 9 22 C8.90715654 24.47189082 8.87416841 26.91531511 8.88647461 29.38720703 C8.88632858 30.14827759 8.88618256 30.90934814 8.8860321 31.69348145 C8.88673007 34.21495389 8.89451706 36.73635292 8.90234375 39.2578125 C8.90420834 41.00373291 8.90563205 42.74965384 8.90663147 44.49557495 C8.91045341 49.09545328 8.92028095 53.69530014 8.93133545 58.29516602 C8.94155651 62.9871376 8.94613058 67.67911425 8.95117188 72.37109375 C8.96190349 81.58074301 8.97897606 90.79036889 9 100 C3.64403028 101.39577765 -1.02744051 102.26858722 -6.60546875 102.37890625 C-7.29256424 102.39590073 -7.97965973 102.4128952 -8.68757629 102.43040466 C-10.85412738 102.48291003 -13.02066642 102.52355167 -15.1875 102.5625 C-17.36495365 102.60666203 -19.54227342 102.65349013 -21.71955872 102.70530701 C-23.68685499 102.75141902 -25.65434233 102.78915639 -27.62182617 102.82641602 C-31.29589318 102.9330457 -31.29589318 102.9330457 -36 104 C-28.41 104.33 -20.82 104.66 -13 105 C-13 105.33 -13 105.66 -13 106 C-22.39705622 106.09284578 -31.79395355 106.16383862 -41.19136906 106.20724869 C-45.55539766 106.22808767 -49.9191115 106.2563373 -54.28295898 106.30175781 C-58.49752822 106.34534805 -62.71179546 106.36916485 -66.9265728 106.37950897 C-68.53129261 106.38687679 -70.13599664 106.40126452 -71.74058723 106.42292023 C-73.99546628 106.45213086 -76.24911137 106.45594886 -78.50415039 106.45410156 C-79.78544327 106.46298401 -81.06673615 106.47186646 -82.38685608 106.48101807 C-87.65905113 105.77913042 -92.53149886 103.36816641 -95.9375 99.125 C-99.45210824 93.74834766 -98.78428308 87.1231642 -98 81 C-96.5663655 76.6117685 -94.06340944 73.28566781 -90 71 C-86.31546592 69.76646752 -82.7405364 69.87541895 -78.87988281 69.87402344 C-78.17038483 69.8721553 -77.46088684 69.87028717 -76.72988892 69.86836243 C-75.19229749 69.86436623 -73.65470015 69.86228431 -72.11710358 69.86190033 C-68.84025251 69.85847233 -65.56359765 69.83709275 -62.28681564 69.81666946 C-56.19118395 69.7787259 -50.09576342 69.74738143 -44 69.74951172 C-39.75460738 69.75030126 -35.50993636 69.72683341 -31.26473236 69.6876297 C-29.65254719 69.67720558 -28.04027836 69.67561915 -26.4280777 69.68328094 C-15.29165353 70.02432194 -15.29165353 70.02432194 -5.45373535 65.50312805 C0.05034958 59.81203411 0.4552301 55.23365449 0.45318604 47.51637268 C0.43254089 46.30569626 0.41189575 45.09501984 0.390625 43.84765625 C0.38213531 41.96475136 0.38213531 41.96475136 0.37347412 40.04380798 C0.35494054 36.7274968 0.31908767 33.41231293 0.2746582 30.09631348 C0.23353279 26.70428135 0.21542654 23.31213215 0.1953125 19.91992188 C0.15130094 13.27963958 0.08442904 6.63988479 0 0 Z " fill="#F48569" transform="translate(285,75)"/>
<path d="M0 0 C8.83409803 4.78675796 11.64132701 12.58703051 14.8359375 21.7109375 C16.74621301 27.16446597 19.12481628 32.28077903 23.7734375 35.9609375 C26.61872474 36.84205871 29.23923734 37.1226862 32.2109375 37.1484375 C32.95214844 37.16261719 33.69335938 37.17679688 34.45703125 37.19140625 C36.83733056 37.06922707 36.83733056 37.06922707 39.1171875 35.9765625 C46.493635 33.1561561 55.89262296 34.19729987 63.1484375 36.8984375 C72.00120974 41.1219973 78.22709977 47.86381028 81.7734375 56.9609375 C81.7734375 58.2809375 81.7734375 59.6009375 81.7734375 60.9609375 C93.3234375 60.9609375 104.8734375 60.9609375 116.7734375 60.9609375 C117.1034375 57.6609375 117.4334375 54.3609375 117.7734375 50.9609375 C119.12109375 47.23828125 119.12109375 47.23828125 120.8359375 43.8984375 C121.38378906 42.79371094 121.93164062 41.68898437 122.49609375 40.55078125 C124.7734375 36.9609375 124.7734375 36.9609375 132.7734375 27.9609375 C104.3934375 27.6309375 76.0134375 27.3009375 46.7734375 26.9609375 C46.7734375 26.6309375 46.7734375 26.3009375 46.7734375 25.9609375 C59.05620993 25.86823098 71.33889902 25.79716893 83.62195015 25.75368881 C89.3255665 25.73281983 95.02894336 25.70451427 100.73242188 25.65917969 C106.23726631 25.61569811 111.74188047 25.59179521 117.24688339 25.58142853 C119.34644063 25.57404137 121.44598535 25.55961597 123.54544449 25.53801727 C126.48776674 25.50895301 129.42913918 25.50498282 132.37158203 25.50683594 C133.67170479 25.48526428 133.67170479 25.48526428 134.99809265 25.46325684 C140.42993588 25.50024064 143.42434616 26.41234863 147.7734375 29.9609375 C148.38324463 30.44127441 148.99305176 30.92161133 149.62133789 31.41650391 C152.0864412 34.72106918 151.2403161 39.38318081 151.2109375 43.3359375 C151.23091797 44.28210938 151.25089844 45.22828125 151.27148438 46.203125 C151.26857893 50.34048249 151.15354848 53.22015857 149.24609375 56.9375 C143.11729247 61.95285397 136.53610775 62.39641035 128.94848633 62.32983398 C127.99949966 62.33360046 127.050513 62.33736694 126.07276917 62.34124756 C124.0255971 62.34765208 121.97839526 62.34737641 119.93122292 62.34106255 C116.6903314 62.331918 113.45001411 62.34221317 110.20915222 62.35768127 C100.99987616 62.39769922 91.79064741 62.39897803 82.58129883 62.39672852 C76.9374506 62.39667746 71.29391483 62.41581686 65.65015221 62.44606209 C62.4586871 62.45689306 59.26781629 62.44475665 56.07637024 62.43223572 C54.12097584 62.44113804 52.16558631 62.45121169 50.21020508 62.46264648 C49.32437744 62.45290298 48.4385498 62.44315948 47.52587891 62.43312073 C43.4082531 62.48121917 41.31517868 62.61618362 37.76405334 64.87605286 C33.96404703 68.85601455 33.51386869 71.79903562 33.359375 77.2578125 C33.32070312 78.46308594 33.28203125 79.66835937 33.2421875 80.91015625 C33.21125 82.16441406 33.1803125 83.41867188 33.1484375 84.7109375 C33.10976562 85.98066406 33.07109375 87.25039062 33.03125 88.55859375 C32.93699528 91.6925632 32.85138584 94.82652699 32.7734375 97.9609375 C23.84131895 93.58909888 18.99892508 86.26723473 15.7734375 76.9609375 C15.50219727 74.19360352 15.50219727 74.19360352 15.46484375 71.21484375 C15.43970703 70.13009766 15.41457031 69.04535156 15.38867188 67.92773438 C15.35357701 65.66216567 15.32231345 63.39653431 15.29492188 61.13085938 C15.13933275 53.12670355 15.13933275 53.12670355 11.7734375 45.9609375 C9.38849482 43.78643094 7.8393235 42.95521718 4.58984375 42.97265625 C1.60047835 43.27208365 -1.27584974 43.70614648 -4.1796875 44.484375 C-10.36020383 45.92335018 -16.43499233 45.79736111 -22.1015625 42.8359375 C-27.82813567 39.20569915 -31.917854 34.4010191 -34.2265625 27.9609375 C-35.0883015 18.95307203 -33.77627246 12.25484202 -28.2265625 4.9609375 C-20.06534167 -2.55597642 -10.30047835 -4.5826618 0 0 Z " fill="#F38468" transform="translate(111.2265625,60.0390625)"/>
<path d="M0 0 C2.83940113 1.2082558 4.37249801 2.08589192 6.11181641 4.61962891 C7.37181681 7.99648539 7.27831944 11.28045867 7.2734375 14.8359375 C7.29372827 16.39063218 7.31457909 17.94531962 7.3359375 19.5 C7.35851053 21.93788773 7.37500118 24.37548919 7.38085938 26.81347656 C7.39041896 29.17564968 7.42423431 31.53655142 7.4609375 33.8984375 C7.45589203 34.62050385 7.45084656 35.34257019 7.44564819 36.08651733 C7.57326978 42.70045541 10.22523265 46.16598788 14.69140625 50.78125 C16.6068422 52.59505057 18.52351151 54.40754954 20.44140625 56.21875 C26.73233368 63.05713219 26.48020134 69.4959651 26.50390625 78.39453125 C26.51389145 79.6964592 26.52387665 80.99838715 26.53416443 82.33976746 C26.552076 85.09092672 26.55769077 87.84180417 26.5559082 90.59301758 C26.55560386 94.09696807 26.59652472 97.59908748 26.64822483 101.10260487 C26.68986019 104.47077017 26.68785747 107.83861256 26.69140625 111.20703125 C26.72374107 113.07776054 26.72374107 113.07776054 26.75672913 114.98628235 C26.69576791 122.78782177 25.56124389 128.27648623 20 134 C13.39708001 138.63699238 5.85554391 139.15055946 -2 138 C-7.21863091 135.98521212 -10.92535389 132.67346208 -14 128 C-14.97320746 125.08037761 -15.13220816 123.19534057 -15.14717102 120.15518188 C-15.15432632 119.15699936 -15.16148163 118.15881683 -15.16885376 117.13038635 C-15.17154266 116.03628952 -15.17423157 114.94219269 -15.17700195 113.81494141 C-15.18357315 112.66185989 -15.19014435 111.50877838 -15.19691467 110.320755 C-15.21665694 106.49769021 -15.22831098 102.67466468 -15.23828125 98.8515625 C-15.24235678 97.54767956 -15.2464323 96.24379662 -15.25063133 94.90040207 C-15.26967478 88.7136898 -15.28390883 82.52698941 -15.2922433 76.34025347 C-15.30201971 69.20140986 -15.32835286 62.06287598 -15.36874419 54.92414153 C-15.3989055 49.40387606 -15.41371208 43.8836994 -15.41702431 38.36335313 C-15.4193744 35.06716593 -15.43030164 31.77138572 -15.45348549 28.47526932 C-15.47774802 24.79787556 -15.47693523 21.12129639 -15.4699707 17.44384766 C-15.48278076 16.35379929 -15.49559082 15.26375092 -15.50878906 14.14067078 C-15.45771872 6.75776552 -15.45771872 6.75776552 -13.09562683 2.84725952 C-9.05130066 -0.71774543 -5.19744012 -0.50355821 0 0 Z " fill="#FEFEFE" transform="translate(101,113)"/>
<path d="M0 0 C39.6 0 79.2 0 120 0 C120 0.33 120 0.66 120 1 C109.11 1 98.22 1 87 1 C87.495 2.98 87.495 2.98 88 5 C88.96661123 17.26215393 87.69794415 27.29403089 79.9375 37.375 C74.42861996 43.200063 65.57033876 47.68355203 57.55859375 48.23828125 C46.2929145 48.54717448 38.57657292 47.27879913 29.6875 39.8125 C21.57116528 32.04018574 18.00559207 23.50077254 17.75 12.375 C17.72343736 7.8460707 18.46413027 5.60760919 20 1 C13.4 1 6.8 1 0 1 C0 0.67 0 0.34 0 0 Z " fill="#F4866A" transform="translate(154,203)"/>
<path d="M0 0 C1.05692047 0.00212242 1.05692047 0.00212242 2.13519287 0.00428772 C4.37663084 0.00986692 6.61796743 0.02241552 8.859375 0.03515625 C10.38281105 0.04017394 11.90624868 0.04473638 13.4296875 0.04882812 C17.15628272 0.05982951 20.88281896 0.07707979 24.609375 0.09765625 C26.83849631 4.55589888 26.09769068 10.25992413 25.609375 15.09765625 C22.71382163 23.37839767 14.893027 29.17063159 7.359375 33.03515625 C1.47659762 35.4979045 -4.09038572 36.24901577 -10.390625 35.09765625 C-14.73814576 33.00091888 -17.27444836 29.33602139 -19.390625 25.09765625 C-20.17826406 19.09456939 -20.60182888 12.37609385 -17.640625 6.91015625 C-12.39556772 0.35383465 -8.17323112 -0.03243346 0 0 Z " fill="#EC2129" transform="translate(206.390625,144.90234375)"/>
<path d="M0 0 C4.54144994 -0.11647041 9.08251394 -0.18734502 13.625 -0.25 C15.55279297 -0.30027344 15.55279297 -0.30027344 17.51953125 -0.3515625 C28.18859781 -0.46212278 28.18859781 -0.46212278 31.7109375 1.703125 C35.16141951 5.1653834 36.85764341 7.38093101 37.29296875 12.33203125 C37.25816406 13.48058594 37.22335937 14.62914062 37.1875 15.8125 C37.14689453 17.55466797 37.14689453 17.55466797 37.10546875 19.33203125 C37.07066406 20.21246094 37.03585937 21.09289062 37 22 C29.705644 24.431452 22.60612068 23.71532875 15.6875 20.5 C8.3328385 16.4183554 3.11757476 10.88563029 0 3 C0 2.01 0 1.02 0 0 Z " fill="#F38468" transform="translate(334,188)"/>
</svg>
